# File produced by Open Asset Import Library (http://www.assimp.sf.net)
# (assimp v3.1.187496374)

mtllib Octahedron.obj.mtl

# 6 vertex positions
v  55.5081 41.6574 32.6599
v  75.3359 53.4977 2.13163e-14
v  74.9957 76.5892 32.6599
v  35.3402 52.9085 1.42109e-14
v  35 76 32.6599
v  54.8277 87.8404 7.10543e-15

# 0 UV coordinates

# 8 vertex normals
vn 0.823352 -0.459326 0.333333
vn 0.0138884 -0.942707 -0.333333
vn -0.809464 -0.483381 0.333333
vn 0 0 1
vn 0.809464 0.483381 -0.333333
vn 1.82149e-16 -3.05024e-16 -1
vn -0.0138884 0.942707 0.333333
vn -0.823352 0.459326 -0.333333

# Mesh '<STL_BINARY>' with 8 faces
g <STL_BINARY>
usemtl DefaultMaterial
f  1//1 2//1 3//1
f  1//2 4//2 2//2
f  4//3 1//3 5//3
f  5//4 1//4 3//4
f  3//5 2//5 6//5
f  2//6 4//6 6//6
f  3//7 6//7 5//7
f  5//8 6//8 4//8

