# File produced by Open Asset Import Library (http://www.assimp.sf.net)
# (assimp v3.1.187496374)

mtllib Icosahedron.obj.mtl

# 13 vertex positions
v  14.1804 -7.22195 37.021
v  25.485 9.26117 22.8814
v  6.68076 16.0733 37.0233
v  20.5737 -12.5736 13.7612
v  17.1669 6.59967 6.21725e-15
v  8.52094 24.6311 14.1458
v  -9.77818 -2.07078 37.0212
v  -1.11456 -20.1124 22.8824
v  0.721703 -11.5544 -6.29838e-15
v  -6.77914 11.7638 -6.21725e-15
v  -13.2689 17.6249 22.8828
v  -13.2689 17.6249 22.8828
v  -18.0834 -4.74305 14.1425

# 0 UV coordinates

# 20 vertex normals
vn 0.634566 0.204219 0.7454
vn 0.886714 -0.333281 0.320409
vn 0.940038 -0.0722143 -0.333336
vn 0.721503 0.607128 -0.332911
vn 0.532736 0.777686 0.333762
vn -1.64437e-05 -0.0001024 1
vn -0.14008 -0.651546 0.745563
vn 0.42647 -0.848798 0.312515
vn 0.182312 -0.92565 -0.331562
vn 0.493878 -0.447388 -0.745606
vn 5.58786e-16 1.83226e-16 -1
vn 0.140599 0.651959 -0.745105
vn -0.407071 0.850424 -0.333275
vn -0.164519 0.928122 0.333951
vn -0.493644 0.447709 0.745568
vn -0.9402 0.072307 0.33286
vn -0.721435 -0.607258 0.33282
vn -0.532642 -0.777802 -0.333641
vn -0.634548 -0.204117 -0.745443
vn -0.886322 0.321137 -0.333624

# Mesh '<STL_BINARY>' with 20 faces
g <STL_BINARY>
usemtl DefaultMaterial
f  1//1 2//1 3//1
f  4//2 2//2 1//2
f  5//3 2//3 4//3
f  5//4 6//4 2//4
f  6//5 3//5 2//5
f  1//6 3//6 7//6
f  8//7 1//7 7//7
f  1//8 8//8 4//8
f  4//9 8//9 9//9
f  4//10 9//10 5//10
f  5//11 9//11 10//11
f  6//12 5//12 10//12
f  11//13 6//13 10//13
f  12//14 3//14 6//14
f  11//15 7//15 3//15
f  11//16 13//16 7//16
f  13//17 8//17 7//17
f  8//18 13//18 9//18
f  10//19 9//19 13//19
f  10//20 13//20 11//20

